<?xml version="1.0" standalone="no"?>
<svg width="567.429" height="407.891" viewBox="0 0 567.429 407.891" xmlns="http://www.w3.org/2000/svg" shape-rendering="crispEdges">
<title>
app_02.C_generated.svg
</title>
<desc>
Creator: ROOT Version 6.34.02
CreationDate: Sun Mar  9 11:14:52 2025</desc>
<defs>
</defs>
<rect x="0.5" y="0" width="566.929" height="407.391" fill="white"/>
<rect x="57.1929" y="40.7391" width="453.543" height="325.913" fill="white"/>
<rect x="57.1929" y="40.7391" width="453.543" height="325.913" fill="none" stroke="black"/>
<rect x="57.1929" y="40.7391" width="453.543" height="325.913" fill="white"/>
<rect x="57.1929" y="40.7391" width="453.543" height="325.913" fill="none" stroke="black"/>
<path d="M59.4606,310.283l 4.53543, -4.42586l 4.53543, -4.88956l 4.53543, -5.17821l 4.53543, -5.27322l 4.53543, -5.16261l 4.53543, -4.84164l 4.53543, -4.31329l 4.53543, -3.58845l 4.53543, -2.68581l 4.53543, -1.63151l 4.53543, -0.458478l 4.53543,
 0.794471l 4.53543, 2.08377l 4.53543, 3.36246l 4.53543, 4.58166l 4.53543, 5.69222l 4.53543, 6.64638l 4.53543, 7.39942l 4.53543, 7.91135l 4.53543, 8.14838l 4.53543, 8.08426l 4.53543, 7.70148l 4.53543, 6.99208l 4.53543, 5.95832l 4.53543, 4.61289l
 4.53543, 2.97886l 4.53543, 1.08932l 4.53543, -1.01339l 4.53543, -3.2787l 4.53543, -5.64918l 4.53543, -8.06207l 4.53543, -10.4511l 4.53543, -12.7485l 4.53543, -14.8868l 4.53543, -16.8012l 4.53543, -18.4311l 4.53543, -19.7227l 4.53543, -20.63l
 4.53543, -21.1168l 4.53543, -21.1577l 4.53543, -20.7391l 4.53543, -19.86l 4.53543, -18.5315l 4.53543, -16.7777l 4.53543, -14.6339l 4.53543, -12.1468l 4.53543, -9.37256l 4.53543, -6.37554l 4.53543, -3.22636" fill="none" stroke="#0000cc"
 stroke-width="2"/>
<path d="M281.697,56.2588l 4.53543, -5.68434e-14l 4.53543, 3.22636l 4.53543, 6.37554l 4.53543, 9.37256l 4.53543, 12.1468l 4.53543, 14.6339l 4.53543, 16.7777l 4.53543, 18.5315l 4.53543, 19.86l 4.53543, 20.7391l 4.53543, 21.1577l 4.53543, 21.1168l
 4.53543, 20.63l 4.53543, 19.7227l 4.53543, 18.4311l 4.53543, 16.8012l 4.53543, 14.8868l 4.53543, 12.7485l 4.53543, 10.4511l 4.53543, 8.06207l 4.53543, 5.64918l 4.53543, 3.2787l 4.53543, 1.01339l 4.53543, -1.08932l 4.53543, -2.97886l 4.53543,
 -4.61289l 4.53543, -5.95832l 4.53543, -6.99208l 4.53543, -7.70148l 4.53543, -8.08426l 4.53543, -8.14838l 4.53543, -7.91135l 4.53543, -7.39942l 4.53543, -6.64638l 4.53543, -5.69222l 4.53543, -4.58166l 4.53543, -3.36246l 4.53543, -2.08377l 4.53543,
 -0.794471l 4.53543, 0.458478l 4.53543, 1.63151l 4.53543, 2.68581l 4.53543, 3.58845l 4.53543, 4.31329l 4.53543, 4.84164l 4.53543, 5.16261l 4.53543, 5.27322l 4.53543, 5.17821l 4.53543, 4.88956" fill="none" stroke="#0000cc" stroke-width="2"/>
<path d="M503.933,305.857l 4.53543, 4.42586" fill="none" stroke="#0000cc" stroke-width="2"/>
<path d="M57.1929,366.652h 453.543" fill="none" stroke="black"/>
<path d="M57.1929,356.875v 9.77739" fill="none" stroke="black"/>
<path d="M68.5315,361.763v 4.8887" fill="none" stroke="black"/>
<path d="M79.8701,361.763v 4.8887" fill="none" stroke="black"/>
<path d="M91.2087,361.763v 4.8887" fill="none" stroke="black"/>
<path d="M102.547,356.875v 9.77739" fill="none" stroke="black"/>
<path d="M113.886,361.763v 4.8887" fill="none" stroke="black"/>
<path d="M125.224,361.763v 4.8887" fill="none" stroke="black"/>
<path d="M136.563,361.763v 4.8887" fill="none" stroke="black"/>
<path d="M147.902,356.875v 9.77739" fill="none" stroke="black"/>
<path d="M159.24,361.763v 4.8887" fill="none" stroke="black"/>
<path d="M170.579,361.763v 4.8887" fill="none" stroke="black"/>
<path d="M181.917,361.763v 4.8887" fill="none" stroke="black"/>
<path d="M193.256,356.875v 9.77739" fill="none" stroke="black"/>
<path d="M204.594,361.763v 4.8887" fill="none" stroke="black"/>
<path d="M215.933,361.763v 4.8887" fill="none" stroke="black"/>
<path d="M227.272,361.763v 4.8887" fill="none" stroke="black"/>
<path d="M238.61,356.875v 9.77739" fill="none" stroke="black"/>
<path d="M249.949,361.763v 4.8887" fill="none" stroke="black"/>
<path d="M261.287,361.763v 4.8887" fill="none" stroke="black"/>
<path d="M272.626,361.763v 4.8887" fill="none" stroke="black"/>
<path d="M283.965,356.875v 9.77739" fill="none" stroke="black"/>
<path d="M295.303,361.763v 4.8887" fill="none" stroke="black"/>
<path d="M306.642,361.763v 4.8887" fill="none" stroke="black"/>
<path d="M317.98,361.763v 4.8887" fill="none" stroke="black"/>
<path d="M329.319,356.875v 9.77739" fill="none" stroke="black"/>
<path d="M340.657,361.763v 4.8887" fill="none" stroke="black"/>
<path d="M351.996,361.763v 4.8887" fill="none" stroke="black"/>
<path d="M363.335,361.763v 4.8887" fill="none" stroke="black"/>
<path d="M374.673,356.875v 9.77739" fill="none" stroke="black"/>
<path d="M386.012,361.763v 4.8887" fill="none" stroke="black"/>
<path d="M397.35,361.763v 4.8887" fill="none" stroke="black"/>
<path d="M408.689,361.763v 4.8887" fill="none" stroke="black"/>
<path d="M420.028,356.875v 9.77739" fill="none" stroke="black"/>
<path d="M431.366,361.763v 4.8887" fill="none" stroke="black"/>
<path d="M442.705,361.763v 4.8887" fill="none" stroke="black"/>
<path d="M454.043,361.763v 4.8887" fill="none" stroke="black"/>
<path d="M465.382,356.875v 9.77739" fill="none" stroke="black"/>
<path d="M476.72,361.763v 4.8887" fill="none" stroke="black"/>
<path d="M488.059,361.763v 4.8887" fill="none" stroke="black"/>
<path d="M499.398,361.763v 4.8887" fill="none" stroke="black"/>
<path d="M510.736,356.875v 9.77739" fill="none" stroke="black"/>
<text xml:space="preserve" x="53.2045" y="380.327" fill="black" font-size="13.5814" font-family="Helvetica">10
</text>
<text xml:space="preserve" x="46.0822" y="380.327" fill="black" font-size="13.5814" font-family="Times">&#8722;
</text>
<text xml:space="preserve" x="102.348" y="380.327" fill="black" font-size="13.5814" font-family="Helvetica">8
</text>
<text xml:space="preserve" x="94.5134" y="380.327" fill="black" font-size="13.5814" font-family="Times">&#8722;
</text>
<text xml:space="preserve" x="147.93" y="380.327" fill="black" font-size="13.5814" font-family="Helvetica">6
</text>
<text xml:space="preserve" x="140.096" y="380.327" fill="black" font-size="13.5814" font-family="Times">&#8722;
</text>
<text xml:space="preserve" x="193.512" y="380.327" fill="black" font-size="13.5814" font-family="Helvetica">4
</text>
<text xml:space="preserve" x="185.678" y="380.327" fill="black" font-size="13.5814" font-family="Times">&#8722;
</text>
<text xml:space="preserve" x="238.382" y="380.327" fill="black" font-size="13.5814" font-family="Helvetica">2
</text>
<text xml:space="preserve" x="230.548" y="380.327" fill="black" font-size="13.5814" font-family="Times">&#8722;
</text>
<text xml:space="preserve" x="280.403" y="380.327" fill="black" font-size="13.5814" font-family="Helvetica">0
</text>
<text xml:space="preserve" x="325.986" y="380.327" fill="black" font-size="13.5814" font-family="Helvetica">2
</text>
<text xml:space="preserve" x="370.856" y="380.327" fill="black" font-size="13.5814" font-family="Helvetica">4
</text>
<text xml:space="preserve" x="416.438" y="380.327" fill="black" font-size="13.5814" font-family="Helvetica">6
</text>
<text xml:space="preserve" x="462.02" y="380.327" fill="black" font-size="13.5814" font-family="Helvetica">8
</text>
<text xml:space="preserve" x="502.617" y="380.327" fill="black" font-size="13.5814" font-family="Helvetica">10
</text>
<text xml:space="preserve" x="475.552" y="394.571" fill="black" font-size="13.5814" font-family="Helvetica">x-axis
</text>
<path d="M57.1929,366.652v -325.913" fill="none" stroke="black"/>
<path d="M70.7992,347.682h -13.6063" fill="none" stroke="black"/>
<path d="M63.9961,335.522h -6.80315" fill="none" stroke="black"/>
<path d="M63.9961,323.363h -6.80315" fill="none" stroke="black"/>
<path d="M63.9961,311.203h -6.80315" fill="none" stroke="black"/>
<path d="M70.7992,299.044h -13.6063" fill="none" stroke="black"/>
<path d="M63.9961,286.884h -6.80315" fill="none" stroke="black"/>
<path d="M63.9961,274.725h -6.80315" fill="none" stroke="black"/>
<path d="M63.9961,262.565h -6.80315" fill="none" stroke="black"/>
<path d="M70.7992,250.406h -13.6063" fill="none" stroke="black"/>
<path d="M63.9961,238.246h -6.80315" fill="none" stroke="black"/>
<path d="M63.9961,226.087h -6.80315" fill="none" stroke="black"/>
<path d="M63.9961,213.927h -6.80315" fill="none" stroke="black"/>
<path d="M70.7992,201.768h -13.6063" fill="none" stroke="black"/>
<path d="M63.9961,189.608h -6.80315" fill="none" stroke="black"/>
<path d="M63.9961,177.449h -6.80315" fill="none" stroke="black"/>
<path d="M63.9961,165.289h -6.80315" fill="none" stroke="black"/>
<path d="M70.7992,153.13h -13.6063" fill="none" stroke="black"/>
<path d="M63.9961,140.97h -6.80315" fill="none" stroke="black"/>
<path d="M63.9961,128.811h -6.80315" fill="none" stroke="black"/>
<path d="M63.9961,116.651h -6.80315" fill="none" stroke="black"/>
<path d="M70.7992,104.492h -13.6063" fill="none" stroke="black"/>
<path d="M63.9961,92.3322h -6.80315" fill="none" stroke="black"/>
<path d="M63.9961,80.1727h -6.80315" fill="none" stroke="black"/>
<path d="M63.9961,68.0132h -6.80315" fill="none" stroke="black"/>
<path d="M70.7992,55.8537h -13.6063" fill="none" stroke="black"/>
<path d="M70.7992,347.682h -13.6063" fill="none" stroke="black"/>
<path d="M63.9961,359.841h -6.80315" fill="none" stroke="black"/>
<path d="M70.7992,55.8537h -13.6063" fill="none" stroke="black"/>
<path d="M63.9961,43.6942h -6.80315" fill="none" stroke="black"/>
<text xml:space="preserve" x="36.1111" y="352.55" fill="black" font-size="13.5814" font-family="Helvetica">0.2
</text>
<text xml:space="preserve" x="28.2767" y="352.55" fill="black" font-size="13.5814" font-family="Times">&#8722;
</text>
<text xml:space="preserve" x="47.5067" y="304.119" fill="black" font-size="13.5814" font-family="Helvetica">0
</text>
<text xml:space="preserve" x="36.1111" y="255.688" fill="black" font-size="13.5814" font-family="Helvetica">0.2
</text>
<text xml:space="preserve" x="36.1111" y="206.545" fill="black" font-size="13.5814" font-family="Helvetica">0.4
</text>
<text xml:space="preserve" x="36.1111" y="158.113" fill="black" font-size="13.5814" font-family="Helvetica">0.6
</text>
<text xml:space="preserve" x="36.1111" y="109.682" fill="black" font-size="13.5814" font-family="Helvetica">0.8
</text>
<text xml:space="preserve" x="49.6434" y="61.2511" fill="black" font-size="13.5814" font-family="Helvetica">1
</text>
<g transform="rotate(-90,15.4567,75.4956)">
<text xml:space="preserve" x="15.4567" y="75.4956" fill="black" font-size="13.5814" font-family="Helvetica">y-axis
</text>
</g>
<text xml:space="preserve" x="252.627" y="19.9422" fill="black" font-size="19.1615" font-family="Helvetica">sin(x)/x
</text></svg>
